<svg xmlns="http://www.w3.org/2000/svg" width="128" height="128" viewBox="0 0 48 48"><path fill="none" stroke="#cccccc" stroke-linecap="round" stroke-linejoin="round" d="M38.733 17.666c.42-.117 1.267 1.52 2.142 2.221a4.9 4.9 0 0 0 1.747 1.104c.268.046 1.24.3.734 1.264a2.42 2.42 0 0 1-2.371.97M15.175 6.923a7.7 7.7 0 0 0-3.694-.252a7.57 7.57 0 0 0-5.769 4.114a8.65 8.65 0 0 0-.346 8.182a10.3 10.3 0 0 0 1.723 2.26M28.08 37.709a1.4 1.4 0 0 0 .039.449c.03.176.676.695 1.946.728c1.257.03 1.985-.65 1.975-1.012c-.006-.307.076-1.407.076-1.407m2.102-.181a22 22 0 0 0 .17 2.414c.108.215.61.718 1.854.767c1.564.062 1.946-.522 1.992-.92s.22-5.317.219-6.157m-18.404 5.654a21 21 0 0 0 .234 3.232a2.09 2.09 0 0 0 2.1.904c1.54-.045 2.06-.943 2.106-1.172s.052-3.723.052-3.723m-7.206-.094s.082 2.697.082 2.965c0 .415-.963 1.07-2.044 1.058c-1.662-.023-1.884-.673-1.962-.996c-.046-.193-.508-4.295-.508-4.295"/><path fill="none" stroke="#cccccc" stroke-linecap="round" stroke-linejoin="round" d="M25.14 8.67q-.088-.07-.191-.138a2.44 2.44 0 0 0-2.344-.274a4.135 4.135 0 0 0-4-2.436a4.28 4.28 0 0 0-4.597 2.896a3.06 3.06 0 0 0-3.631.826a3.04 3.04 0 0 0-.369 3.814a2.33 2.33 0 0 0-.872 2.07a1.98 1.98 0 0 0 .826 1.563a5.96 5.96 0 0 0-2.896 4.411C6.697 24.804 8.216 26 8.216 26a5.59 5.59 0 0 0 .137 5.195c1.404 2.896 3.402 3.033 3.402 3.033s1.058 2.39 2.987 2.85a7 7 0 0 0 3.54-.092a5.34 5.34 0 0 0 3.63 1.332a3.4 3.4 0 0 0 2.481-1.149a3.84 3.84 0 0 0 3.448.598c2.299-.506 2.713-1.793 2.713-1.793a4.75 4.75 0 0 0 4.274.046a4.32 4.32 0 0 0 2.344-3.17a5.3 5.3 0 0 0 3.586-2.759a3.81 3.81 0 0 0 .09-3.954a5.95 5.95 0 0 0-.045-3.768a3.45 3.45 0 0 0-2.572-2.804s1.423-2.573-.507-4.506a5.7 5.7 0 0 0-3.407-1.545"/><path fill="none" stroke="#cccccc" stroke-linecap="round" stroke-linejoin="round" d="M10.27 17.112a2.4 2.4 0 0 0 1.623-.58a5.4 5.4 0 0 0 1.319-1.565a3.82 3.82 0 0 0 2.572 1.962c2.237.399 3.8-1.684 3.8-1.684a2.32 2.32 0 0 0 1.013 2.174a3.4 3.4 0 0 0 2.758.581a13 13 0 0 0-2.419 3.494c-.58 1.593-.888 4.29-2.39 5.609c-2.122 1.86-8.518 1.593-8.978-2.818c-.196-1.874.796-1.9.92-4.41a8.6 8.6 0 0 0-.218-2.763"/><path fill="none" stroke="#cccccc" stroke-linecap="round" stroke-linejoin="round" d="M22.804 14.112c0 1.962.95 3.555 1.286 3.431a2.73 2.73 0 0 0 1.962-2.053a2.57 2.57 0 0 1 2.142-1.649c1.045-.12 2.188.438 2.73 2.387a3.92 3.92 0 0 1-1.012 4.137c-.953.702-2.25.548-2.573-.399c-.49-1.44 1.531-1.93 1.564-2.42s-2.481-1.563-4.198.125a4.914 4.914 0 0 0-.582 6.589c1.502 1.93 3.912 2.24 6.311.98c2.452-1.287 4.51-3.895 4.352-8.917c-.182-5.883-4.78-8.94-8.302-8.15a4 4 0 0 0-2.74 1.865a8.75 8.75 0 0 0-.94 4.074m-10.368 3.437l-.042 1.332m6.294-.949l-.042 1.332m-6.231 3.374l1.078 1.248a6 6 0 0 0 1.626-.813m-3.678 2.524c.618.499 2.052.393 2.052-1.711"/><path fill="none" stroke="#cccccc" stroke-linecap="round" stroke-linejoin="round" d="M15.685 25.845c-.594.299-1.782.685-2.308-1.044m-4.89-6.586c-.125-2.138-2.382-1.952-2.382-2.74c0-1.36 3.183-1.829 3.652-2.596"/></svg>